{"title":"Midnight Chronicles-AC3-5,1-DVDRip[Eng]2008","uid":5344571,"size":1461668458,"categoryP":"video","categoryS":"movies","magnet":"?xt=urn:btih:ca40fbcac29b2267536b3643f964662f67b36dc9&amp;dn=Midnight+Chronicles-AC3-5%2C1-DVDRip%5BEng%5D2008&amp;tr=udp%3A%2F%2Ftracker.openbittorrent.com%3A80&amp;tr=udp%3A%2F%2Fopen.demonii.com%3A1337&amp;tr=udp%3A%2F%2Ftracker.coppersurfer.tk%3A6969&amp;tr=udp%3A%2F%2Fexodus.desync.com%3A6969","seeders":0,"leechers":1,"uploader":"FatFreddy31","files":-1,"time":1265589171,"description":" &lt;a href=&quot;http://www.imdb.com/title/tt1079372/&quot; rel=&quot;nofollow&quot; target=&quot;_NEW&quot;&gt;http://www.imdb.com/title/tt1079372/&lt;/a&gt;\n\nUser Rating:4.4/10 - 352 votes\n\nFantasy\n\nDirector:Christian T. Petersen\n\nCast:Charles Hubbell/Matt Amendt/Steve Sweere/Dawn Brodey, and others.\n\nPlot:\nIn the world of MIDNIGHT, it is a time of overwhelming darkness. After three ages of scheming and war, the dark god Izrador has finally defeated the heroes and armies of the free races. Now, he rules the world of Aryth with an iron fist. Enslaved under the Shadow, the race of men leads an oppressed existence, and the elves and dwarves have retreated to distant forests and mountains, where their desperate resistance is slowly succumbing to the unyielding might of the Shadow. Investigating the disappearance of a legate priest, the infamous Mag Kiln has been ordered by the church to travel to the small Erenlander town of Blackweir. There, he soon becomes entangled in an old mystery and begins to uncover not only the forbidden legacy of the town, but the malevolent, prophetic force that grows within him. MIDNIGHT CHRONICLES is the epic narrative that tells the tale of two legendary characters -- one for the cause of good, the other for the cause of evil. This is the story of their rise, their struggle, and ultimately their fate, as their destinies become intertwined with that of the world and the dark god that occupies it...\n\nInfo:\n\nGeneral\nComplete name                    : Midnight Chronicles-AC3-5,1-DVDRip[Eng]2008.avi\nFormat                           : AVI\nFormat/Info                      : Audio Video Interleave\nFile size                        : 1.36 GiB\nDuration                         : 1h 36mn\nOverall bit rate                 : 2 028 Kbps\nWriting application              : VirtualDubMod 1.5.4.1 (build 2178/release)\nWriting library                  : VirtualDubMod build 2178/release\n\nVideo\nID                               : 0\nFormat                           : MPEG-4 Visual\nFormat profile                   : Simple@L3\nFormat settings, BVOP            : No\nFormat settings, QPel            : No\nFormat settings, GMC             : No warppoints\nFormat settings, Matrix          : Default (H.263)\nCodec ID                         : XVID\nCodec ID/Hint                    : XviD\nDuration                         : 1h 36mn\nBit rate                         : 1 635 Kbps\nWidth                            : 704 pixels\nHeight                           : 400 pixels\nDisplay aspect ratio             : 16:9\nFrame rate                       : 25.000 fps\nResolution                       : 24 bits\nColorimetry                      : 4:2:0\nScan type                        : Progressive\nBits/(Pixel*Frame)               : 0.232\nStream size                      : 1.10 GiB (81%)\nWriting library                  : XviD 1.1.2 (UTC 2006-11-01)\n\nAudio\nID                               : 1\nFormat                           : AC-3\nFormat/Info                      : Audio Coding 3\nCodec ID                         : 2000\nDuration                         : 1h 36mn\nBit rate mode                    : Constant\nBit rate                         : 384 Kbps\nChannel(s)                       : 6 channels\nChannel positions                : Front: L C R, Surround: L R, LFE\nSampling rate                    : 48.0 KHz\nStream size                      : 264 MiB (19%)\nAlignment                        : Split accross interleaves\nInterleave, duration             : 40 ms (1.00 video frame)\nInterleave, preload duration     : 500 ms\n\nEnjoy...","torrent":{"xt":"urn:btih:ca40fbcac29b2267536b3643f964662f67b36dc9","amp;dn":"Midnight+Chronicles-AC3-5%2C1-DVDRip%5BEng%5D2008","amp;tr":["udp%3A%2F%2Ftracker.openbittorrent.com%3A80","udp%3A%2F%2Fopen.demonii.com%3A1337","udp%3A%2F%2Ftracker.coppersurfer.tk%3A6969","udp%3A%2F%2Fexodus.desync.com%3A6969"],"infoHash":"ca40fbcac29b2267536b3643f964662f67b36dc9","infoHashBuffer":{"type":"Buffer","data":[202,64,251,202,194,155,34,103,83,107,54,67,249,100,102,47,103,179,109,201]},"announce":[],"urlList":[]}}